<svg viewBox="0 0 16 16" xmlns="http://www.w3.org/2000/svg" xmlns:xlink="http://www.w3.org/1999/xlink" width="16.000000" height="16.000000" fill="none">
	<rect id="刷新" width="16.000000" height="16.000000" x="0.000000" y="0.000000" />
	<path id="形状结合" d="M11.8023 2.74214C14.551 4.72753 15.2723 8.45696 13.5427 11.2912L15.2418 10.8386C15.4695 10.778 15.7026 10.8916 15.7995 11.0976L15.8292 11.179C15.8974 11.4351 15.745 11.6981 15.4888 11.7663L12.5944 12.5368C12.3388 12.6049 12.0764 12.4533 12.0075 12.198L11.2276 9.3061C11.1586 9.05015 11.3102 8.7867 11.5661 8.71768C11.8221 8.64865 12.0855 8.80019 12.1545 9.05614L12.6521 10.9045C14.2122 8.48125 13.6166 5.23683 11.2402 3.52036C8.77243 1.73791 5.32032 2.279 3.53082 4.72763C1.74256 7.17457 2.29095 10.6012 4.757 12.3824C6.4178 13.582 8.27849 13.8397 10.389 13.1543C10.6411 13.0724 10.9119 13.2104 10.9938 13.4625C11.0757 13.7147 10.9377 13.9854 10.6855 14.0673C8.28962 14.8454 6.10943 14.5435 4.19489 13.1607C1.29791 11.0682 0.653 7.03845 2.75574 4.16119C4.85725 1.28563 8.90699 0.650866 11.8023 2.74214Z" fill="rgb(25,25,25)" fill-rule="nonzero" />
</svg>
